# xmcd
#
# Track frame offsets:
#	150
#	14607
#	28448
#	41227
#	57746
#	83275
#	97592
#	117563
#	139509
#	149125
#	161834
#	174864
#	178394
#
# Disc length: 2552 seconds
# Revision: 0
# Processed by: cddbd v1.5.2PL0 Copyright (c) Steve Scherf et al.
# Submitted via: dBpowerAMP V12.0
#
DISCID=bb09f60d
DTITLE=Steppenwolf - The Second
DYEAR=1968
DGENRE=Bluesrock
TTITLE0=Fast Than The Speed of Life
TTITLE1=Tighten Up Your Wig
TTITLE2=None Of Your Doing
TTITLE3=Spiritual Fantasy
TTITLE4=Don't Step On The Grass,Sam
TTITLE5=28
TTITLE6=Magic carpet Ride
TTITLE7=Disappointment Number
TTITLE8=Lost And Found By Trial and Error
TTITLE9=Hodge, Podge, Strained Through A Leslie
TTITLE10=Ressurrection
TTITLE11=Reflections
TTITLE12=Magic Carpet Ride [Mono Single Version]
EXTD=
EXTT0=
EXTT1=
EXTT2=
EXTT3=
EXTT4=
EXTT5=
EXTT6=
EXTT7=
EXTT8=
EXTT9=
EXTT10=
EXTT11=
EXTT12=
PLAYORDER=
